# xmcd
#
# Track frame offsets:
#	150
#	20767
#	37222
#	53940
#	74632
#	97527
#	119180
#	136947
#	159307
#	178500
#	194307
#	211717
#
# Disc length: 3251 seconds
#
# Revision: 11
# Processed by: cddbd v1.5.2PL0 Copyright (c) Steve Scherf et al.
# Submitted via: audiograbber 1.83.01
#
DISCID=ab0cb10c
DTITLE=Jamie Cullum - The Pursuit
DYEAR=2009
DGENRE=Jazz
TTITLE0=Just One Of Those Things
TTITLE1=I'm All Over It
TTITLE2=Wheels
TTITLE3=If I Ruled The World
TTITLE4=You And Me Are Gone
TTITLE5=Don't Stop The Music
TTITLE6=Love Ain't Gonna Let You Down
TTITLE7=Mixtape
TTITLE8=I Think, I Love
TTITLE9=We Run Things
TTITLE10=Not While I'm Around
TTITLE11=Music Is Through
EXTD=
EXTT0=
EXTT1=
EXTT2=
EXTT3=
EXTT4=
EXTT5=
EXTT6=
EXTT7=
EXTT8=
EXTT9=
EXTT10=
EXTT11=
PLAYORDER=
